<svg xmlns="http://www.w3.org/2000/svg" width="24" height="24" viewBox="0 0 24 24"><defs><style>.a{fill:#fff;opacity:0;}.b{fill:none;stroke:#273240;stroke-linecap:round;stroke-linejoin:round;}</style></defs><g transform="translate(-529 -606)"><rect class="a" width="24" height="24" transform="translate(529 606)"/><g transform="translate(532 608.439)"><path class="b" d="M6.5,6h14a1.936,1.936,0,0,1,2,1.864V20.916a1.936,1.936,0,0,1-2,1.864H6.5a1.936,1.936,0,0,1-2-1.864V7.864A1.936,1.936,0,0,1,6.5,6Z" transform="translate(-4.5 -4.219)"/><path class="b" d="M24,3V5.332" transform="translate(-11 -2.439)"/><path class="b" d="M12,3V5.332" transform="translate(-7 -2.439)"/><path class="b" d="M4.5,15h18" transform="translate(-4.5 -7.632)"/></g></g></svg>